<?xml version="1.0" encoding="utf-8"?>
<!-- Generator: Adobe Illustrator 20.0.0, SVG Export Plug-In . SVG Version: 6.00 Build 0)  -->
<svg version="1.1" id="レイヤー_1" xmlns="http://www.w3.org/2000/svg" xmlns:xlink="http://www.w3.org/1999/xlink" x="0px"
	 y="0px" viewBox="0 0 46 16.4" style="enable-background:new 0 0 46 16.4;" xml:space="preserve">
<style type="text/css">
	.st0{fill:#FFFFFF;}
</style>
<g>
	<g>
		<g>
			<path class="st0" d="M33.3,16.4c-0.3,0-0.7-0.2-0.9-0.5c-0.3-0.5-0.1-1.1,0.3-1.4l8.7-5.4H1c-0.6,0-1-0.4-1-1s0.4-1,1-1h44
				c0.4,0,0.8,0.3,1,0.7c0.1,0.4-0.1,0.9-0.4,1.1l-11.7,7.2C33.7,16.4,33.5,16.4,33.3,16.4z"/>
		</g>
	</g>
	<g>
		<g>
			<path class="st0" d="M45,9.5c-0.2,0-0.4-0.1-0.6-0.2L33.9,1.8c-0.4-0.3-0.6-0.9-0.2-1.4C34,0,34.6-0.1,35.1,0.2l10.5,7.5
				C46,8,46.1,8.6,45.8,9.1C45.6,9.4,45.3,9.5,45,9.5z"/>
		</g>
	</g>
</g>
</svg>
