<svg id="レイヤー_1" data-name="レイヤー 1" xmlns="http://www.w3.org/2000/svg" viewBox="0 0 265.62 161.02"><defs><style>.cls-1{fill:#fff;fill-rule:evenodd;}</style></defs><title>アートボード 1</title><path class="cls-1" d="M41.3,5.82l-.15-1c0-1.25-1.9-2.11-3.62-2.86A14.09,14.09,0,0,1,34.86.56a1.17,1.17,0,0,1-.75-.25L34,.25h-.08L31.8,0l-.33.26-.12.09a.52.52,0,0,1-.07.31,4.08,4.08,0,0,1-.3.43l-.12.16,0,.55a.52.52,0,0,1,0,.22,7.88,7.88,0,0,1-.37.74.52.52,0,0,1,0,.4,1.41,1.41,0,0,1-.3.41.94.94,0,0,0-.11.12.51.51,0,0,1,0,.47,3,3,0,0,1-.48.81l-.1.13A12.19,12.19,0,0,1,28,8.53a2.27,2.27,0,0,1-.26.95l-.07.13a12.44,12.44,0,0,1-1.24,2,2.51,2.51,0,0,1-.14.66,3.51,3.51,0,0,1-.29.44,1.73,1.73,0,0,0-.24.38,1.19,1.19,0,0,1,0,.15.52.52,0,0,1-.44.54l-.29.58A13.74,13.74,0,0,0,24.27,16a.57.57,0,0,1-.21.48l-.07,0a5.68,5.68,0,0,1-.55,1.14,3.28,3.28,0,0,0-.42.9.61.61,0,0,1-.23.47l-.18.09c-.3.71-.78,1.81-1.2,2.65a5.13,5.13,0,0,1-.27.46,3.88,3.88,0,0,0-.25.43.52.52,0,0,1-.05.24c-.05.11-.12.22-.18.35a2.63,2.63,0,0,0-.24.51.91.91,0,0,1,0,.12.52.52,0,0,1-.44.54l-.43.9c-.3.62-.8,1.65-.88,1.92a.52.52,0,0,1,0,.19c-.06.13-.14.27-.22.42a2.19,2.19,0,0,0-.22.44,1,1,0,0,1,0,.14.52.52,0,0,1-.29.49l-.11,0a13.66,13.66,0,0,0-1,2.2h0a.63.63,0,0,1-.2.42l-.09.06a2.74,2.74,0,0,1-.2.43,1.24,1.24,0,0,0-.08.17v.12a.52.52,0,0,1-.22.45l-.05,0a6.84,6.84,0,0,1-1,1.89c-.12.18-.23.36-.31.51s-.22.63-.3.91-.18.56-.22.67c-.38.92-.85,1.79-1.34,2.73-.26.5-.53,1-.79,1.53s-.35.79-.51,1.21a14.92,14.92,0,0,1-1.06,2.3v0a1,1,0,0,1,0,.5.52.52,0,0,1-.18.23l-.16.12a1.9,1.9,0,0,1-.13.68,2.71,2.71,0,0,1-.49.77l-.08.1a.68.68,0,0,1,0,.61,2.21,2.21,0,0,1-.26.36,4,4,0,0,0-.33.45l0,.09a.52.52,0,0,1-.18.62l-.07,0a.67.67,0,0,1,0,.36,3.1,3.1,0,0,1-.43.66L8,50.43a1,1,0,0,1-.07.78.52.52,0,0,1-.28.23l0,.19a3.07,3.07,0,0,1-.36,1.23c-.08.13-.17.25-.25.36a3.05,3.05,0,0,0-.22.32l0,.08a.52.52,0,0,1,0,.41c-.38.87-.87,1.9-1.31,2.71v.12a1.14,1.14,0,0,1,0,.51,3.94,3.94,0,0,1-.42.84L5,58.36a2.82,2.82,0,0,0-.15.55,1.7,1.7,0,0,1-.61,1.18c0,.1-.14.2-.15.32s-.31.46-.31.75v0c0,.24,0,.43-.13.53a8.51,8.51,0,0,1-.44,1.52c-.1.23-.17.47-.26.71a1.19,1.19,0,0,0,0,.5,1.67,1.67,0,0,1-.09.73,28.86,28.86,0,0,0-1.49,5.29c0,.29-.16.73-.28,1.21a10.1,10.1,0,0,0-.41,2.07.29.29,0,0,1,0,.16.62.62,0,0,1-.2.5c0,.3,0,.64-.07,1a7.46,7.46,0,0,0,0,1.1c0,.08,0,.08,0,.17a.63.63,0,0,1-.19.48,10.46,10.46,0,0,1-.18,1.57L0,79a1,1,0,0,0,.07.37,1.83,1.83,0,0,1,.1.81,22.61,22.61,0,0,0,.19,5.43,37.64,37.64,0,0,0,2.77,8.36.49.49,0,0,1,.1.14,8.87,8.87,0,0,0,3.09,3.38,16.3,16.3,0,0,0,5.62,2.83,9.81,9.81,0,0,0,3.83.21h.08l.15,0a2.28,2.28,0,0,0,.63.1.81.81,0,0,0,.73-.34l.09-.14a.52.52,0,0,1,.23-.2c0-.08,0-.16-.06-.25l-.07-.18a11.21,11.21,0,0,0-2-3.19L15,95.69a1.05,1.05,0,0,1-.18-.36,1.38,1.38,0,0,0-.21-.68,4.38,4.38,0,0,1-.75-2,.5.5,0,0,1-.09-.11.52.52,0,0,1-.06-.45,1.4,1.4,0,0,0-.22-.78,2.86,2.86,0,0,1-.36-1.73s0-.15,0-.28a3.86,3.86,0,0,1,0-1.23A8.22,8.22,0,0,0,13,86.74a6.92,6.92,0,0,1,0-2.85,7.64,7.64,0,0,1-.19-2.36l0-.19c.17-.74.3-1.28.45-2.31a4,4,0,0,0,0-.86,3.19,3.19,0,0,1,.05-1.46,8.8,8.8,0,0,0,.43-1.7,9.82,9.82,0,0,1,.59-2.18,5.86,5.86,0,0,1,.08-1.29A19.88,19.88,0,0,0,15,69.46a17.3,17.3,0,0,1,1.27-3.75,9.73,9.73,0,0,1,1.15-3.35,11.06,11.06,0,0,1,.34-1.75c2-5.07,4.16-9.87,6.2-14.51,1-2.21,1.92-4.37,2.82-6.47A11.17,11.17,0,0,1,28,37.38a21.13,21.13,0,0,1,1.3-3.24c.05-.1.16-.28.3-.51a10.76,10.76,0,0,0,.9-1.64.33.33,0,0,1,0-.22c.42-.87.79-1.69,1.16-2.49a38.88,38.88,0,0,1,2.93-5.61h0a26.1,26.1,0,0,1,1.39-3.46A35.48,35.48,0,0,0,38,16.15a8.72,8.72,0,0,1,.44-.92,3.25,3.25,0,0,0,.39-.95,2.37,2.37,0,0,1,.5-.89l0-.06a1,1,0,0,1,.28-.63l0,0a5,5,0,0,1,.49-1.57,15.84,15.84,0,0,0,.53-1.5,3.68,3.68,0,0,1,.24-.81A1.84,1.84,0,0,0,41,8.35a.48.48,0,0,1,.16-.6A9,9,0,0,1,41.3,5.82Z"/><path class="cls-1" d="M185.57,37.14a6.69,6.69,0,0,0,3.5-4.78A4.75,4.75,0,0,0,187.75,28a12.19,12.19,0,0,0-2.06-1.57,4.76,4.76,0,0,1-2-.49,1.23,1.23,0,0,0-.37.05,1.19,1.19,0,0,1-.25,0,.75.75,0,0,1-.24,0,1.08,1.08,0,0,1-.69.07h0a6.41,6.41,0,0,1-.94.47,4.82,4.82,0,0,0-1.64,1l-.11.09a1,1,0,0,1-.21.1A7.34,7.34,0,0,1,178.13,29a7.05,7.05,0,0,1-.52,1.43,9.25,9.25,0,0,1,0,1.49,7.67,7.67,0,0,0,.07,1.76,6.28,6.28,0,0,1,.44.71c.16.28.33.59.53.89a.88.88,0,0,1,.58.52.59.59,0,0,1,.38.17s.1.14.18.27.2.35.3.47a1.64,1.64,0,0,1,.69.41s.06.21.09.21h0a2.57,2.57,0,0,1,1,0c.13.06.42,0,.57,0h0c.37,0,.64,0,1,0A5.08,5.08,0,0,0,185.57,37.14Z"/><path class="cls-1" d="M262,84.89c.37-.51.72-1.25,1.07-1.7a24.82,24.82,0,0,0,2-2.82,4.56,4.56,0,0,0,.32-.87,6.35,6.35,0,0,1,.24-.69,2.42,2.42,0,0,1-.14-.57c-.05-.33-.06-.36-.38-.43l-.11,0a.54.54,0,0,0-.32.1.52.52,0,0,1-.27.14c-.28.05-.69.7-.94,1.09-.12.19-.24.37-.34.51a21.57,21.57,0,0,1-2.55,2.76c-.36.35-.72.69-1.07,1.05a.59.59,0,0,1-.18.34.7.7,0,0,1-.31.16,4.89,4.89,0,0,0-.78.77,5.56,5.56,0,0,1-.63.64c-.93.72-1.76,1.25-2.64,1.81-.62.39-1.26.8-2,1.31a.51.51,0,0,1-.41.08,5.87,5.87,0,0,0-.9.52,5.52,5.52,0,0,1-.58.35,2.06,2.06,0,0,1-.7.11l-.28,0a3.22,3.22,0,0,0-.38.23,2.87,2.87,0,0,1-.71.37,2.69,2.69,0,0,1-.77.09h-.62l-.39.16a5.36,5.36,0,0,1-1,.35,24,24,0,0,1-3.94.21,2,2,0,0,1-.48-.11,2.65,2.65,0,0,0-.32-.09,1.87,1.87,0,0,1-.44,0,5.18,5.18,0,0,1-2.19-.47,1.7,1.7,0,0,1-1.25-.28,1.32,1.32,0,0,0-.48-.2l-.16,0a5.32,5.32,0,0,1-1.74-.81A3.61,3.61,0,0,1,234,88.3l-.2-.15a9.06,9.06,0,0,1-2.14-2.26.69.69,0,0,1-.14-.41s0-.09,0-.17a.52.52,0,0,1,.16-.48l1.49-1.36c3.37-3.08,6.55-6,8.83-10.32l.22-.42c.55-1,1.56-2.92,1.43-3.66a.52.52,0,0,1,0-.31c.29-.64.33-.87.31-1a.46.46,0,0,1-.05-.23.64.64,0,0,1,.2-.46c0-.22,0-.45,0-.69.08-1.53.17-3.26-1.16-4.48a2.74,2.74,0,0,0-1.18-.62l-.13-.05.14-.52h0l-.23.46a3.37,3.37,0,0,0-1.37-.23,18.67,18.67,0,0,0-4.65.88c-3.1.92-6.08,2.94-9.38,6.35a52.65,52.65,0,0,0-6.74,8.58c-3.49,5.55-4.48,10.33-3,14.2a10,10,0,0,0,1.92,3,.52.52,0,0,1-.06.75l-.3.25a17.92,17.92,0,0,1-1.58,1.22l-.08.08-.1.08-.43.26a6.41,6.41,0,0,1-3.37,1.25,4,4,0,0,1-.75-.07,13.48,13.48,0,0,1-1.85-.49c-2.85-1-3.79-5-3.21-7.31a1.76,1.76,0,0,0,0-.35,3.17,3.17,0,0,1,.13-1.4,43.64,43.64,0,0,1,3.76-7.91s0-.17.08-.32a5.22,5.22,0,0,1,.3-.94c.34-.7.53-1.21.78-1.86.14-.38.3-.8.51-1.32a1.43,1.43,0,0,0,0-.57,2.46,2.46,0,0,1,0-.72,15.05,15.05,0,0,0,.2-2.69,2.5,2.5,0,0,1-.23-1.15,1.41,1.41,0,0,0,0-.4,4.5,4.5,0,0,0-.52-.88A4.58,4.58,0,0,1,211,68.3l-.09-.08a3.52,3.52,0,0,1-.7-.74A2.35,2.35,0,0,1,210,67a.7.7,0,0,0-.13-.26,8.38,8.38,0,0,0-2-1.53l-.31-.19a1.27,1.27,0,0,0-.5-.15,1.73,1.73,0,0,1-1.07-.49,1.47,1.47,0,0,1-.46-1.46.52.52,0,0,1,.21-.28l.13-.09.35-1.5a.52.52,0,0,1,.29-.35l.09,0c.08-.26.13-.54.18-.83a6.29,6.29,0,0,1,.37-1.38,19.21,19.21,0,0,0,1.06-4,1.16,1.16,0,0,1,.33-.58,13.44,13.44,0,0,0,.18-2.2,8.79,8.79,0,0,0-.73-2,1.73,1.73,0,0,0-.43-.42,1.62,1.62,0,0,1-.61-.73,5.47,5.47,0,0,0-3.09-.61,5.75,5.75,0,0,0-1.54.26A11,11,0,0,0,198.16,51a28.49,28.49,0,0,0-7.08,11.63c-.83,2.65-.86,4.68-.07,6.19.91,1.73,3.72,2,5.31,2a18.34,18.34,0,0,0,3.59-.37.52.52,0,0,1,.57.73,1.35,1.35,0,0,0-.06.21,16.11,16.11,0,0,1-1.34,3.47c-.06.13-.25.41-.46.74a13,13,0,0,0-.79,1.3v0a.66.66,0,0,1-.4.6.63.63,0,0,1-.18.45l-.16.11a1.53,1.53,0,0,0-.16.35.57.57,0,0,1-.31.42l-.07,0a14.2,14.2,0,0,0-1,1.77,1.54,1.54,0,0,1-.41.46l-.14.13a.51.51,0,0,1,0,.1,1.33,1.33,0,0,1-.57.74l0,0v0a1.35,1.35,0,0,1-.51.73l-.09.08c0,.29-.29.55-.79,1.1-.16.18-.4.43-.5.57a.62.62,0,0,1-.15.37.58.58,0,0,1-.37.2.43.43,0,0,0,.22-.06,22.12,22.12,0,0,0-2.14,2.33.55.55,0,0,1-.16.26.66.66,0,0,1-.33.16,2.59,2.59,0,0,0-.16.24,2.15,2.15,0,0,1-.54.66,11.44,11.44,0,0,0-1.1,1,13.64,13.64,0,0,1-1,.91l-.36.22c-.24.16-.48.31-.72.45a5.33,5.33,0,0,0-1.09.77h0a.48.48,0,0,1-.1.15.51.51,0,0,1-.38.19c-.22,0-.61.31-.89.54a.64.64,0,0,1-.23.12,18.44,18.44,0,0,1-4.14.52,7.14,7.14,0,0,1-3-.52c-1.28-.61-1.56-2.52-1.74-3.78a5.61,5.61,0,0,1,.42-2.69,65,65,0,0,1,2.88-7c1.83-3.81,6.64-18.75,5.42-21.94s-5-4.7-8.94-5.81l-.12,0a.54.54,0,0,1-.21,0,2.07,2.07,0,0,0-1.07.18.81.81,0,0,1-.3.17,1.09,1.09,0,0,1-.16.19.68.68,0,0,1-.44.19,1.77,1.77,0,0,0-.15.47,3.87,3.87,0,0,1-.19.62c-.28.69-1,2.93-1.83,5.57-2,6.31-3.7,11.34-4.41,12.48-.2.32-.68,1.56-.73,1.56h0s-.15.72-.31.79,0,.28,0,.28a4.23,4.23,0,0,0-.29.87,3.59,3.59,0,0,1-.47,1.17v0a1.75,1.75,0,0,1-.18.42v0a.55.55,0,0,1,0,.15,2.82,2.82,0,0,1-.28.65,4.59,4.59,0,0,0-.23.49.52.52,0,0,1,0,.25l0,.16,0,.13-.19.4a50.18,50.18,0,0,1-3.43,6.2c-.31.35-.58.69-.76.93a2.61,2.61,0,0,1-.33.38.52.52,0,0,1-.25.11c-.24.22-.83.8-1.28,1.24-.8.78-1.16,1.14-1.31,1.25-1,.72-1.74,1.35-2.4,1.91a16.14,16.14,0,0,1-6.17,3.55,5.71,5.71,0,0,1-1.08.13,1.19,1.19,0,0,1-1.08-.47,1.15,1.15,0,0,1,.18-1.17h0a.52.52,0,0,1,.21-.35l.11-.06A27.64,27.64,0,0,0,148,87.52c.1-.27,1.12-2.53,1.43-3.18v0a.82.82,0,0,1,0-.57c.07-.19.17-.43.28-.7a9.2,9.2,0,0,0,.89-3.11.52.52,0,0,1,.11-.34.71.71,0,0,1,.26-.2,2.19,2.19,0,0,0,0-.32,2.85,2.85,0,0,1,.15-1.14,2,2,0,0,1,.3-.53,1,1,0,0,0,.19-.34,17.58,17.58,0,0,0,.39-1.9,11.18,11.18,0,0,1,1-3.65c0-.07,0-.16,0-.27A5.74,5.74,0,0,1,153,70c0-.18.09-.4.13-.64a9.73,9.73,0,0,1,.39-1.54,13.63,13.63,0,0,0,.09-3.47c-.05-.18-.15-.43-.26-.7a4.42,4.42,0,0,1-.48-1.72c-.51-1-4.35-2.69-5.91-2.93s-2.12-.12-2.4.28a.52.52,0,0,1-.33.21h0l0,0a.55.55,0,0,1-.44.15c-.19,0-.56.28-.81.49a4.14,4.14,0,0,1-.63.46,15,15,0,0,0-4,3.11,1.53,1.53,0,0,1-.47.32l-.1.05a.59.59,0,0,1-.15.3.77.77,0,0,1-.25.17.83.83,0,0,0-.2.23.6.6,0,0,1-.44.49,5.87,5.87,0,0,0-1.32,1.56,2.07,2.07,0,0,1-.3.34l-.12.12a.63.63,0,0,1-.41.57c-.1,0-.3.37-.4.54a3.19,3.19,0,0,1-.44.62,14.43,14.43,0,0,0-2.29,3.54,4.29,4.29,0,0,1-.77,1.1,4.21,4.21,0,0,0-.55.74c-.15.3-.29.61-.41.91a5.88,5.88,0,0,1-.65,1.26v0a1.55,1.55,0,0,1-.31.55l-.07.09a.5.5,0,0,1,0,.14,6.18,6.18,0,0,1-.8,1.51,11.17,11.17,0,0,0-.6,1,.54.54,0,0,1,0,.16,7.86,7.86,0,0,1-.79,1.67c-.21.39-.53,1-.61,1.19a.53.53,0,0,1,0,.14,2,2,0,0,1-.39.78l-.12.18a.53.53,0,0,1,0,.22,1.68,1.68,0,0,1-.47.84l-.06.74a.52.52,0,0,1,0,.14c-.07.17-.16.38-.26.61a9.24,9.24,0,0,0-.43,1.06.51.51,0,0,1-.07.14l-.66,1a.52.52,0,0,1-1-.29s0-.17,0-.2a6.55,6.55,0,0,1,.45-1.44,4.16,4.16,0,0,1,.34-.54,1.93,1.93,0,0,0,.32-.58s0-.09,0-.18a1.65,1.65,0,0,1,.12-.62,1.76,1.76,0,0,1,.19-.27v-.13a.5.5,0,0,1,0-.12c.15-.45.27-.88.4-1.3a19.3,19.3,0,0,1,.93-2.66s0-.22,0-.36a2.58,2.58,0,0,1,0-.86c.08-.29.18-.56.28-.82a3,3,0,0,0,.31-1.48.52.52,0,0,1,0-.17l.3-1.5a.52.52,0,0,1,.22-.33l.13-.09c.06-.4.16-1.58.24-2.63a1.61,1.61,0,0,1,.14-.55c0-.07.07-.18.09-.25a.52.52,0,0,1,.16-.57,5.4,5.4,0,0,1,.29-1.54,8.56,8.56,0,0,1,.2-3.17,8.57,8.57,0,0,0,.23-2.33,4.29,4.29,0,0,1,.07-1.57,1.83,1.83,0,0,0,.05-.37,8.41,8.41,0,0,1-.21-.89,4.51,4.51,0,0,0-.36-1.22.52.52,0,0,1,0-.39s0-.5,0-.61a6.51,6.51,0,0,0-.47-.76,3.42,3.42,0,0,1-.53-1l0,0a.52.52,0,0,1-.1-.14c-.74-1.39-3.73-2.18-8.2-2.18a35.27,35.27,0,0,0-3.58.18c-1.07.12-2.22.61-2.23,1.42a2.39,2.39,0,0,0,.68,1.32l.28.37c1.39,1.92,1.46,4.4,1.42,6.56-.2,10.34-2.41,20.63-4.47,29.46a.54.54,0,0,1,0,.11c-.38,1.67-.75,3.26-1.13,4.84a.52.52,0,0,1-.05.13l-.11.19-.1.75-.35,1.49c-.54,1.65-1,3.18-1.38,4.67-.53,1.92-1.09,3.91-1.84,6v0a.87.87,0,0,1,0,.42,1.05,1.05,0,0,1-.21.35v0a.52.52,0,0,1-.26.63h0a3.2,3.2,0,0,0,0,.44,3,3,0,0,1-.08.63,5.5,5.5,0,0,1-.42,1,4.27,4.27,0,0,0-.37.89,34.26,34.26,0,0,1-1.32,4.37,5.27,5.27,0,0,0-.08.68,3.65,3.65,0,0,1-.12.82,1.44,1.44,0,0,1-.32.45l-.12.14s0,.28,0,.41a2.39,2.39,0,0,1,0,.55,2.8,2.8,0,0,1-.42.92,3.3,3.3,0,0,0-.22.39.87.87,0,0,0,0,.48,1.54,1.54,0,0,1,0,.54,2.21,2.21,0,0,1-.47.85l-.13.17c0,.06,0,.14,0,.22a2.93,2.93,0,0,1,0,.63,3.1,3.1,0,0,1-.43,1,4.53,4.53,0,0,0-.24.45.7.7,0,0,1,0,.53.51.51,0,0,1-.08.15.58.58,0,0,1,0,.19,1.42,1.42,0,0,1-.23.51.52.52,0,0,1,0,.37,1.37,1.37,0,0,1-.32.47L99,132a.77.77,0,0,1,.07.37.52.52,0,0,1-.1.27,12.51,12.51,0,0,0-.78,2.16l-.15.49s0,.1,0,.16a1.09,1.09,0,0,1,0,.58.52.52,0,0,1-.12.17l-.31.31a4.82,4.82,0,0,0-.08.65,4.1,4.1,0,0,1-.2,1.16.52.52,0,0,1-.11.17l-.32.32a4.68,4.68,0,0,0-.05.58,4.4,4.4,0,0,1-.1.88.52.52,0,0,1-.13.23l-.06.06a.52.52,0,0,1,0,.23,3.76,3.76,0,0,1-.37.78,2.26,2.26,0,0,0-.14.26,2.15,2.15,0,0,1,0,.35,2.46,2.46,0,0,1-.1.77,1.55,1.55,0,0,1-.35.48.82.82,0,0,0-.1.11,4.4,4.4,0,0,0-.16,1,4.66,4.66,0,0,1-.19,1.12,62.9,62.9,0,0,0-1.88,6.17c-.24.88-.47,1.75-.71,2.6a7.31,7.31,0,0,0,.07,1.92,5.35,5.35,0,0,1,.07.93c0,.09.08.2.12.29a1.77,1.77,0,0,1,.18.54l.12.17a1.18,1.18,0,0,1,.28.57A4.91,4.91,0,0,0,97.08,161a1.89,1.89,0,0,0,.39,0,1.61,1.61,0,0,1,.62,0l.11,0a.48.48,0,0,0,.11-.09.51.51,0,0,1,.27-.14c1-.19,4.17-4.88,4.45-6.69,0-.19,0-.38.06-.55a3.82,3.82,0,0,1,.28-1.28,8.68,8.68,0,0,0,.44-1.82,9.36,9.36,0,0,1,.52-2.09,8.86,8.86,0,0,1,.13-1.46,4.41,4.41,0,0,1,.29-.59l.16-.3a5.11,5.11,0,0,1,.73-2.82,10.37,10.37,0,0,1,.24-2,2,2,0,0,1,.38-.52,5.38,5.38,0,0,1,.58-2.23c.09-.24.18-.45.22-.6a1.5,1.5,0,0,0,0-.5,1.68,1.68,0,0,1,.06-.62,8.48,8.48,0,0,1,.4-.89c.07-.14.14-.27.18-.37l.09-1a.54.54,0,0,1,0-.11l5.29-16.39.44-1.14c.91-2.34,2.81-7.2,3.18-8.6a18,18,0,0,1,1.89-5,6,6,0,0,1,1-2.22c0-.41.46-.74.64-1.06s.5-.35.5-.56v-.41c0-.08-.2-.16-.16-.24,1.14-2.23,2.17-4.71,3.27-7.11,1.65-3.6,3.29-7.32,5.1-10.46.64-1.1,1.11-2.14,1.65-3.24s1.15-2.39,1.92-3.68c.59-1,1.1-1.71,1.64-2.46.4-.56.84-1.16,1.37-2l.53-.83c1.29-2,2.89-4.58,5.36-4.74h.13c.58.12.93.78,1.24,1.37.07.13.16.31.22.39a.51.51,0,0,1,.16.14.52.52,0,0,1,.09.45,4,4,0,0,0,.06,1.34,3.34,3.34,0,0,1,0,1.15,5.28,5.28,0,0,1-.18.59v0a.52.52,0,0,1,0,.51.64.64,0,0,0,0,.26,1.62,1.62,0,0,1,0,.55,3.23,3.23,0,0,1-.41.79l0,.06a6.25,6.25,0,0,1,0,1,9,9,0,0,1-.5,1.65,6.62,6.62,0,0,0-.53,2,.58.58,0,0,1,0,.16.61.61,0,0,1-.24.49l0,0v.06c-.06.34-.13.77-.2,1.09s-.25.65-.36.94a7.2,7.2,0,0,0-.49,1.15l-.26.58,0,.06,0,.06a59.28,59.28,0,0,1-6.35,10.53c-1.37,1.85-3.42,5.3-1.65,7.5a3.4,3.4,0,0,0,3,1.37,10.67,10.67,0,0,0,1.49-.12,35,35,0,0,0,6.35-1.77,15.87,15.87,0,0,0,3.29-1.69l.52-.23a18.12,18.12,0,0,1,1.64-.93.52.52,0,0,1,.37,0c.22-.06,1.55-.91,2.19-1.32l.84-.52a.48.48,0,0,1,.28-.07,17.63,17.63,0,0,0,1.59-.91l.23-.17c.68-.52.68-.52.87-.52a3.55,3.55,0,0,0,1-.73c.23-.2.45-.4.68-.57a.52.52,0,0,1,.44-.09l.28-.3a1.12,1.12,0,0,1,.58-.41l0,0a1,1,0,0,1,.52-.37,31.71,31.71,0,0,0,3-2.23.51.51,0,0,1,.44-.19c.48,0,.66.52.81.92,0,.08.05.15.08.2a.52.52,0,0,1,.16.38,9.72,9.72,0,0,0,6.83,9.88,3.36,3.36,0,0,1,.53,0,8.54,8.54,0,0,1,1.83.22,8,8,0,0,1,1.82-.21,3.64,3.64,0,0,1,.63,0l1.49-.09A2.23,2.23,0,0,1,177,98l.19,0a10.27,10.27,0,0,0,3.18-1.41.52.52,0,0,1,.43-.1,5.8,5.8,0,0,0,.76-.49c.42-.3.58-.45.88-.42a6.33,6.33,0,0,0,1.06-.8l.48-.4a.52.52,0,0,1,.42-.1,3.48,3.48,0,0,1,.26-.29l.24-.24v0a.52.52,0,0,1,.39-.25l.77-.6c.91-.7,1.93-1.5,2.31-1.85.15-.14.53-.58.9-1,1-1.2,1.36-1.57,1.63-1.68a17.06,17.06,0,0,0,2.61-3.33l.19-.29a11.66,11.66,0,0,1,1.16-1.43c.24-.27.5-.54.75-.86a10.34,10.34,0,0,1,1.85-2.77,2.19,2.19,0,0,0,.27-.76.53.53,0,0,1,.07-.18,4.67,4.67,0,0,1,.5-.63c.3-.33.43-.49.42-.79a.52.52,0,0,1,.41-.51,20.34,20.34,0,0,1,1-1.82l.26-.44.71-1.57.87-1.9a2.21,2.21,0,0,1,2.91-.74,2,2,0,0,1,.84,2.12,4.87,4.87,0,0,1-.86,1.8l-7.68,11.56-2.5,3.65c-1.66,3.38-1.88,5.12.15,8.61,1.86,3.2,6,3.68,8.36,3.68.44,0,.87,0,1.3,0A27,27,0,0,0,212.3,100a14.65,14.65,0,0,0,5.92-2.93.4.4,0,0,1,.1-.24,1.24,1.24,0,0,1,.64-.34,2,2,0,0,0,.35-.44.37.37,0,0,1,.12-.24l.13-.12a.59.59,0,0,1,.66,0,13.35,13.35,0,0,0,2.58,1.49,19.87,19.87,0,0,0,8,1.46l1,0a35.15,35.15,0,0,0,13.67-3.29l.15,0a9.31,9.31,0,0,0,2.57-1,.52.52,0,0,1,.38-.07l.07-.05a1.11,1.11,0,0,1,.66-.27l.19,0a12,12,0,0,0,2.88-1.72.52.52,0,0,1,.44-.08,4.88,4.88,0,0,0,1-.67c.43-.34.66-.52.92-.55a18.65,18.65,0,0,0,2.12-1.66.52.52,0,0,1,.45-.12c.12-.09.55-.53.73-.73a4.18,4.18,0,0,1,.33-.31c.25-.23.5-.38.74-.59a11.14,11.14,0,0,0,2.27-2.15c.1-.16.29.09.47.09h0C261.89,84.35,262,84.94,262,84.89ZM203.9,60.66a6.33,6.33,0,0,0-.19.76c-.17.82-.38,1.84-1.23,2.17a.87.87,0,0,1-.4.08,2.94,2.94,0,0,1-1.89-1.15c-.46-.52-.18-1.26,0-1.8a2.6,2.6,0,0,0,.17-.56c-.18-.85,1-3.83,1.69-4.82a2.68,2.68,0,0,1,.71-.66c.13-.08.25-.09.35-.18a.53.53,0,0,1,.36-.15h.3a.53.53,0,0,1,.37.16l.3.39a.4.4,0,0,1,.14.21C205.09,57.22,204.62,58.56,203.9,60.66Zm27.52,22.42h-.07a.52.52,0,0,1-.48-.32C229.68,80,229.63,75.43,233,71a3,3,0,0,1,1.64-1.22l.77-.34a.52.52,0,0,1,.27,0h.15a1.16,1.16,0,0,1,.53.13,1.24,1.24,0,0,1,.7.59,4.67,4.67,0,0,1,.5,1.62c0,.13,0,.23.05.27.4,1.38-.12,2.62-.64,3.94a18.38,18.38,0,0,1-2.5,4.63c-.12.16-.67.38-.67.57v0a.54.54,0,0,1-.16.35,2.34,2.34,0,0,1-.51.43L233,82a.54.54,0,0,1-.23.37,2.31,2.31,0,0,1-.38.21.24.24,0,0,0-.15.16.53.53,0,0,1-.54.32l-.17,0Z"/><path class="cls-1" d="M102.12,85a2.61,2.61,0,0,0,.08-.73c-.12-.45-.35-1.06-.55-1.6l-.24-.66a1.84,1.84,0,0,1-.09-.73s0-.06,0-.09l-.29-.29a.53.53,0,0,1-.1-.13,2.52,2.52,0,0,1-.22-.93c0-.07,0-.12,0-.16a1.77,1.77,0,0,0-.22-.29l-.07-.08a.7.7,0,0,1-.25-.17.51.51,0,0,1-.15-.34,16.57,16.57,0,0,0-.55-1.61c-.32-.67-.63-1.21-.9-1.7a8.29,8.29,0,0,1-1.35-3.79.52.52,0,0,1,.15-.42c.07-.09.59-.88,1.07-1.62a7.12,7.12,0,0,1,1-1.58,5.83,5.83,0,0,1,1-1.83c.23-.34.45-.66.55-.86s.29-.53.45-.83c.78-1.4,1.86-3.31,1.42-4.58a.52.52,0,0,1,0-.35,1.25,1.25,0,0,1,.15-.29,6.61,6.61,0,0,0-.73-1.46.84.84,0,0,0-.33-.18,1,1,0,0,1-.51-.35,7.06,7.06,0,0,1-1.06-.3,9.42,9.42,0,0,1-1.22.05h-.45a5.7,5.7,0,0,1-1,.4,14.46,14.46,0,0,0-3.3.89,5,5,0,0,0-1.63.7.52.52,0,0,1-.4.13,8.78,8.78,0,0,0-1.15.75.56.56,0,0,1-.19.3.9.9,0,0,1-.35.16,2.13,2.13,0,0,0-.65.63l-.61.56,0,0,0,0a15,15,0,0,0-4.77,10.93,27.48,27.48,0,0,0,2.36,10.21.52.52,0,0,1,0,.39,1.53,1.53,0,0,1-.13.26c-.93,1.07-1.94,2.2-3,3.32l-.55.56C82.62,88,82,88.62,81.53,89a.6.6,0,0,1-.31.31.54.54,0,0,1-.41.33c-.19,0-.54.4-.79.68a4.76,4.76,0,0,1-.87.83.51.51,0,0,1-.21.08.52.52,0,0,1-.11.16.69.69,0,0,1-.47.22,2.07,2.07,0,0,1-.36.41.52.52,0,0,1-.2.1l-.27.07c-.1.1-.2.21-.3.32a4.15,4.15,0,0,1-.65.63,2.84,2.84,0,0,1-.56.28,2.87,2.87,0,0,0-.39.18.49.49,0,0,1-.14.19A.55.55,0,0,1,75,94a2.93,2.93,0,0,0-.76.51l-.3.24-.1.06-.15.06-.09,0-.07,0a1.93,1.93,0,0,1-1.74,0c-2.41-1.41-2.37-6.69-2.15-8.6a77.09,77.09,0,0,1,2.11-11.09c.74-2.76,1.75-6.54-.16-8.89-1.2-1.47-3.27-1.93-4.73-2.14a8.58,8.58,0,0,0-1.22-.11,3.14,3.14,0,0,0-1.23.22,1.93,1.93,0,0,0-.7.51l-.1.09a13.12,13.12,0,0,0-2.29,2.17c-.38.42-.75.83-1.11,1.18a.57.57,0,0,1-.18.3l-.16.1v0A11,11,0,0,0,58.55,70a.6.6,0,0,1-.5.54s0,.06-.1.11a.6.6,0,0,1-.25.46.75.75,0,0,1-.22.1c-.18.25-.4.51-.61.76a3.89,3.89,0,0,0-.72,1,.56.56,0,0,1-.2.43.6.6,0,0,1-.27.12,3.53,3.53,0,0,0-.28.47,4.57,4.57,0,0,1-.24.41,13.32,13.32,0,0,1-1.38,1.7,1.36,1.36,0,0,1-.36.76l-.15.16a5.42,5.42,0,0,0-.75.89.38.38,0,0,0,0-.22c.12.47-1.69,2.85-2.27,3.59a4.79,4.79,0,0,1-1,1.67c-.2.27-.5.66-.6.83,0,.4-.37.8-.81,1.29l-.32.36a5,5,0,0,1-1.23,1.86s0,0,0,.05a1.64,1.64,0,0,1-.7,1,1.73,1.73,0,0,1-.77,1.06,7.47,7.47,0,0,1-1.22,1.78c-.26.32-.6.76-.69.91a.59.59,0,0,1-.46.47,3.89,3.89,0,0,0-.66.63.52.52,0,0,1-.48.17,1.32,1.32,0,0,1-.56-.2l-.1-.06a.52.52,0,0,1-.27-.52c0-.11.1-.49.22-1,.16-.66.49-2,.5-2.35a.52.52,0,0,1,.24-.56,9.42,9.42,0,0,1,1-2.69l.13-.27a5.52,5.52,0,0,1,.85-2.13l0-.08a1.23,1.23,0,0,1,.31-.74l.11-.15a.52.52,0,0,1,0-.36l0-.08a.89.89,0,0,1,.42-.66.66.66,0,0,1,0-.54,5.71,5.71,0,0,1,.56-.88l.16-.22a3,3,0,0,1,.29-1.23.52.52,0,0,1,.17-.18l.19-.13a4.33,4.33,0,0,0,.22-.77,3,3,0,0,1,.22-.72,4.09,4.09,0,0,1,.39-.54l.11-.14A2.75,2.75,0,0,1,47,74.88a6.33,6.33,0,0,0,.63-1.33.45.45,0,0,1,.23-.43,12.87,12.87,0,0,1,1.2-3l.25-.52a2.23,2.23,0,0,1,.45-1.38,2.27,2.27,0,0,0,.19-.35,5.52,5.52,0,0,1,.77-2.4,8.86,8.86,0,0,1,.13-1.9c0-.12.08-.5-.66-1a.52.52,0,0,1-.18-.21,2.47,2.47,0,0,0-.43-.64,4.64,4.64,0,0,0-1.63-1,19,19,0,0,0-7.15-1.39,18.71,18.71,0,0,0-6.91,1.3c-.1,0-.4.16-.44.27a.54.54,0,0,0,.17.4,4.39,4.39,0,0,0,1.1.85,3.84,3.84,0,0,1,1.65,1.58,7.28,7.28,0,0,1,.38,3.13,31.26,31.26,0,0,1-1.9,5.75c-1.37,3.39-2.68,6.81-3.9,10.21a57.9,57.9,0,0,0-3.59,14,3.06,3.06,0,0,0,.11,1.5,2.54,2.54,0,0,0,1.26,1.1,8.07,8.07,0,0,0,4,.84,8.73,8.73,0,0,0,1.12.08c1.8,0,4.53-.65,7.3-3.74l3.66-3.66a6.4,6.4,0,0,1,.68-.82l.46-.52a9.54,9.54,0,0,0,1-1.58c.15-.28.28-.52.39-.69a3.85,3.85,0,0,1,.45-.53c.26-.27.37-.39.36-.56a.52.52,0,0,1,.26-.48,10,10,0,0,0,1.79-2.78.52.52,0,0,1,.29-.26,5.8,5.8,0,0,1,1-1.37l.18-.22a2.3,2.3,0,0,1,.42-.94l.24-.25c.09-.09.29-.28.37-.38a6.75,6.75,0,0,1,1.48-2.17,2.9,2.9,0,0,1,.64-1.15.52.52,0,0,1,.14-.1,2.61,2.61,0,0,1,.68-.85,1.53,1.53,0,0,1,.62-.87l.05,0a9.8,9.8,0,0,1,2.09-2.59l.42-.45a.52.52,0,0,1,.48-.16,1,1,0,0,1,.5.18.52.52,0,0,1,.12.12A2.15,2.15,0,0,1,60,75.29c0,.14-.07.27-.09.4.1.34.13,1.17-.59,3.83A3.46,3.46,0,0,1,59.1,81c0,.16-.08.32-.11.45a2.66,2.66,0,0,1-.21,1.94,3.49,3.49,0,0,0-.31,1.32,19.2,19.2,0,0,1,0,2.24c0,.52-.06,1.1-.07,1.81a3.9,3.9,0,0,1-.06.52,2.22,2.22,0,0,0,0,.51l.1.79c.05.44.09.75.19,1.29a1,1,0,0,1-.08.54h0c1,3.55,2.13,5.81,4.86,7.52a9.17,9.17,0,0,0,1.05.35l.26.08h.11a2.48,2.48,0,0,1,1.12.06,2.73,2.73,0,0,0,1,.12,8.43,8.43,0,0,0,2-.25,11,11,0,0,0,1.62-.57,22.68,22.68,0,0,0,5.41-3.47.52.52,0,0,1,.3-.43,10.62,10.62,0,0,0,3-2.63.53.53,0,0,1,.44-.22l.27-.18a.52.52,0,0,1,.28-.47.58.58,0,0,1,.25-.06L80.6,92a2.11,2.11,0,0,1,.84-.81l.18-.18a11.58,11.58,0,0,1,2.07-2,3.87,3.87,0,0,1,.91-1.16c.13-.13.24-.24.29-.3L85,87.4a2.89,2.89,0,0,1,.69-.77,5.17,5.17,0,0,0,.64-.65l0-.07c.11-.27.28-.71.71-.76a.53.53,0,0,1,.41-.07.52.52,0,0,1,.37.33l.12.36c1.37,4.66.75,7.88-2.22,11.47a12.2,12.2,0,0,1-4.52,3.26c-.5.22-1,.44-1.15.8a.74.74,0,0,0,0,.62,1.43,1.43,0,0,0,.85.74c.17,0,.35.36.56.36l.15.32h0c.06,0,.22-.32.27-.3a10.86,10.86,0,0,0,2.8.08v0a6.29,6.29,0,0,0,3.13-.5,3.17,3.17,0,0,1,.9-.28,2.61,2.61,0,0,0,.55-.14c1.54-.7,6.75-3.25,9.2-6.65a.73.73,0,0,1,.53-.28,16.67,16.67,0,0,0,1.28-2.16.57.57,0,0,1,.23-.35l.16-.08a10.51,10.51,0,0,0,1-2.72c0-.07,0,0,0-.12a.63.63,0,0,1,.21-.47c0-.53.06-.87.1-1.21s.07-.61.09-1.06a7.63,7.63,0,0,0-.06-1.11,3.66,3.66,0,0,1,0-.84Zm-6-16.22h0a1.41,1.41,0,0,1-.7-.21l-.09-.05a.52.52,0,0,1-.26-.34,9.19,9.19,0,0,1-.34-2.39c-.36-.46-.21-1.5.14-2.87a6.76,6.76,0,0,1,2-3.28,1.87,1.87,0,0,1,.63-.3,1.2,1.2,0,0,0,.28-.11.52.52,0,0,1,.44-.09,3.46,3.46,0,0,0,.63.09.52.52,0,0,1,.42.3c1,2.17-.87,6.1-2.63,9A.52.52,0,0,1,96.13,68.75Z"/></svg>