<?xml version="1.0" encoding="utf-8"?>
<!-- Generator: Adobe Illustrator 20.0.0, SVG Export Plug-In . SVG Version: 6.00 Build 0)  -->
<svg version="1.1" id="レイヤー_1" xmlns="http://www.w3.org/2000/svg" xmlns:xlink="http://www.w3.org/1999/xlink" x="0px"
	 y="0px" viewBox="0 0 418.9 41.9" style="enable-background:new 0 0 418.9 41.9;" xml:space="preserve">
<style type="text/css">
	.st0{fill:#FFFFFF;}
</style>
<g>
	<g>
		<g>
			<path class="st0" d="M22.9,20.3h-8.2c-0.8,0-1.3,0.5-1.3,1.3c0,0.8,0.5,1.3,1.3,1.3c2.9,0,2.9,1.1,2.9,1.5v3.3
				c0,0.4-0.1,0.8-0.2,1c-0.3,0.8-1,1.5-2,2c-1,0.5-2.1,0.8-3.4,0.8c-0.4,0-0.8,0-1.3-0.1c-1.6-0.3-3-1.1-4.1-2.4
				C5,27,4.1,23.8,4.1,19.6c0-3.5,0.6-6.3,1.7-8.5c1.1-2.2,2.6-3.5,4.5-3.9c0.5-0.1,1-0.2,1.5-0.2c1.6,0,3.1,0.5,4.5,1.6
				c1.3,1,2.4,2.3,3.2,3.8c0.3,0.6,1,0.8,1.7,0.6l0.1,0c0.5-0.3,0.7-0.7,0.7-1.2c0-0.1,0-0.3-0.1-0.5l-2-5.8
				c-0.2-0.6-0.6-0.9-1.2-0.9c-0.1,0-0.2,0-0.4,0C18,4.8,17.7,5,17.5,5.3c-0.1,0.1-0.1,0.3-0.1,0.6l0,0c-1.7-1.1-3.6-1.7-5.6-1.7
				C8.2,4.2,5.2,5.8,3,9c-2,2.8-3,6-3,9.7c0,4.6,1,8.2,2.9,10.9c1.3,1.9,3.1,3.2,5.3,4c1.2,0.4,2.6,0.7,3.9,0.7c2.5,0,4.7-0.7,6.6-2
				c0.1,0,0.2,0,0.2,0c0.3,0.4,0.7,0.5,1,0.5c0.1,0,0.3,0,0.4-0.1c0.6-0.1,1-0.6,1-1.3v-6.8c0-1.2,0.4-1.6,1.5-1.6
				c0.8,0,1.3-0.5,1.3-1.3C24.2,20.8,23.7,20.3,22.9,20.3"/>
		</g>
		<g>
			<path class="st0" d="M37.7,13.7c-2.5,0-4.6,1.1-6.3,3.1c-1.7,2-2.5,4.5-2.5,7.2c0,2.7,0.8,5.1,2.5,7.2c1.7,2.1,3.8,3.1,6.3,3.1
				c2.6,0,4.8-1.1,6.5-3.3c1.5-2,2.3-4.3,2.3-7c0-2.7-0.8-5.1-2.4-7.1C42.5,14.7,40.3,13.7,37.7,13.7 M37.7,31.7
				c-1.5,0-2.6-0.6-3.4-2c-0.9-1.4-1.3-3.3-1.3-5.7c0-2.4,0.4-4.3,1.3-5.7c0.8-1.3,2-2,3.4-2c1.5,0,2.6,0.6,3.4,2
				c0.9,1.4,1.3,3.3,1.3,5.7c0,2.4-0.4,4.3-1.2,5.6C40.4,31,39.2,31.7,37.7,31.7"/>
		</g>
		<g>
			<path class="st0" d="M59.8,13.7c-2.5,0-4.6,1.1-6.3,3.1c-1.7,2-2.5,4.5-2.5,7.2c0,2.7,0.8,5.1,2.5,7.2c1.7,2.1,3.8,3.1,6.3,3.1
				c2.6,0,4.8-1.1,6.5-3.3c1.5-2,2.3-4.3,2.3-7c0-2.7-0.8-5.1-2.4-7.1C64.5,14.7,62.4,13.7,59.8,13.7 M59.8,31.7
				c-1.5,0-2.6-0.6-3.5-2C55.5,28.3,55,26.4,55,24c0-2.4,0.4-4.3,1.3-5.7c0.8-1.3,2-2,3.5-2c1.5,0,2.6,0.6,3.4,2
				c0.9,1.4,1.3,3.3,1.3,5.7c0,2.4-0.4,4.3-1.3,5.6C62.4,31,61.3,31.7,59.8,31.7"/>
		</g>
		<g>
			<path class="st0" d="M91.2,31c-0.7,0-1.6-0.1-1.6-0.6V5.6c0-0.5-0.2-0.8-0.6-1.1c-0.3-0.3-0.7-0.3-1.2-0.2l-4.7,1.5
				c-0.7,0.2-1,0.8-0.9,1.5c0.1,0.7,0.6,1.2,1.3,1.2c0.2,0,0.5,0,0.7,0c1.1,0,1.4,0.1,1.4,0.1C86,8.6,86,9.1,86,9.6v6
				c-1.3-1.1-2.9-1.6-4.8-1.6c-2.5,0-4.5,1.1-6,3.2c-1.3,1.9-2,4.2-2,6.8c0,3.1,0.7,5.6,2.1,7.4c1.4,1.9,3.4,2.9,5.8,2.9
				c1.7,0,3.4-0.6,4.9-1.9c0.1,0.7,0.6,1.2,1.3,1.2h3.8c0.8,0,1.3-0.5,1.3-1.3C92.5,31.5,92,31,91.2,31 M84.3,30.3
				c-0.9,0.6-1.8,1-2.7,1c-1.2,0-2.1-0.6-3-1.9c-0.9-1.3-1.4-3-1.4-4.8c0-1.9,0.3-3.5,0.8-4.8c0.8-1.9,2-2.8,3.8-2.8
				c1.9,0,3.3,1,4.2,3.1v8.4l0,0.1C85.6,29.2,85,29.8,84.3,30.3"/>
		</g>
		<g>
			<path class="st0" d="M120.4,5.8c-0.2-0.6-0.7-0.9-1.3-0.9H99.7c-0.8,0-1.3,0.5-1.3,1.3c0,0.8,0.5,1.3,1.3,1.3
				c2.7,0,2.7,1.1,2.7,1.5v20.3c0,0.4,0,1.5-2.7,1.5c-0.8,0-1.3,0.5-1.3,1.4c0,0.8,0.5,1.3,1.3,1.3h9.4c0.8,0,1.3-0.5,1.3-1.3
				c0-0.8-0.5-1.4-1.3-1.4c-3.1,0-3.1-1.1-3.1-1.5v-9.2h4.3c1.1,0,2.6,0.3,2.6,3.2c0,0.8,0.5,1.3,1.3,1.3c0.8,0,1.3-0.5,1.3-1.3
				v-9.1c0-0.8-0.5-1.4-1.3-1.4c-0.8,0-1.3,0.5-1.3,1.4c0,2.2-0.8,3.2-2.7,3.2H106V9.2c0-1.1,0.2-1.4,0.1-1.4c0.1,0,0.5-0.2,2.2-0.2
				h5.3c2.5,0,4.6,1.6,6.3,4.8c0.4,0.6,0.8,0.7,1.1,0.7c0.2,0,0.4,0,0.6-0.1c0.7-0.3,1-0.9,0.7-1.7L120.4,5.8z"/>
		</g>
		<g>
			<path class="st0" d="M139.2,28.4c-0.3-0.1-0.5-0.2-0.8-0.2c-0.3,0-0.7,0.1-1.1,0.7c-0.9,1.4-2.3,2.2-4.5,2.5
				c-2.3,0-3.9-1.1-4.9-3.3c-0.5-1.2-0.8-2.6-0.8-4v-0.1h11c0.4,0,0.8-0.1,1-0.4c0.2-0.2,0.3-0.6,0.3-1c-0.1-1.9-0.6-3.7-1.6-5.3
				c-1.4-2.1-3.3-3.3-5.8-3.5c-0.5,0-0.9,0-1.1,0c-2.8,0-4.9,1.4-6.4,4.2c-1,1.9-1.5,3.9-1.5,6c0,2.3,0.4,4.3,1.3,6
				c1.5,2.8,4,4.3,7.5,4.3c2.2,0,4.1-0.6,5.8-1.8c0.8-0.6,1.5-1.3,1.9-2C140.1,29.6,139.9,28.9,139.2,28.4 M127.4,21.3
				c0.5-3.1,1.7-4.7,3.7-4.9c1.3-0.1,2.4,0.3,3.1,1c0.8,0.8,1.2,2.1,1.3,3.8H127.4z"/>
		</g>
		<g>
			<path class="st0" d="M160.5,28.4c-0.3-0.1-0.5-0.2-0.8-0.2c-0.3,0-0.7,0.1-1.1,0.7c-0.9,1.4-2.3,2.2-4.4,2.5
				c-2.3,0-4-1.1-4.9-3.3c-0.5-1.2-0.8-2.6-0.8-4v-0.1h11c0.4,0,0.8-0.1,1-0.4c0.2-0.2,0.4-0.6,0.3-1c-0.1-1.9-0.6-3.7-1.6-5.3
				c-1.4-2.1-3.3-3.3-5.8-3.5c-0.5,0-0.9,0-1.1,0c-2.8,0-4.9,1.4-6.4,4.2c-1,1.9-1.5,3.9-1.5,6c0,2.3,0.4,4.3,1.3,6
				c1.4,2.8,3.9,4.3,7.5,4.3c2.2,0,4.1-0.6,5.8-1.8c0.8-0.6,1.5-1.3,1.9-2C161.3,29.6,161.2,28.9,160.5,28.4 M148.7,21.3
				c0.5-3.1,1.7-4.7,3.7-4.9c1.3-0.1,2.4,0.3,3.1,1c0.8,0.8,1.2,2.1,1.3,3.8H148.7z"/>
		</g>
		<g>
			<path class="st0" d="M173.6,31c-0.9,0-1.2-0.2-1.2-0.2c-0.1-0.1-0.2-0.5-0.2-0.9V5.6c0-0.4-0.2-0.8-0.5-1
				c-0.3-0.3-0.8-0.3-1.2-0.2l-3.6,1.1c-0.7,0.2-1,0.8-0.9,1.5c0.1,0.7,0.6,1.2,1.3,1.2c0.9,0,1,0.2,1.1,0.2c0,0,0.1,0.3,0.1,1.5
				v19.9c0,0.9-0.3,1.3-1.2,1.3c-0.8,0-1.3,0.5-1.3,1.3c0,0.8,0.4,1.3,1.2,1.4h6.5c0.8,0,1.3-0.5,1.3-1.3
				C174.9,31.5,174.4,31,173.6,31"/>
		</g>
		<g>
			<path class="st0" d="M184.2,9.6c0.7,0,1.3-0.3,1.8-0.7c0.5-0.5,0.8-1.1,0.8-1.8c0-0.7-0.3-1.3-0.8-1.8c-0.5-0.5-1.1-0.8-1.8-0.8
				c-0.7,0-1.3,0.3-1.8,0.8c-0.5,0.5-0.7,1.1-0.7,1.8c0,0.7,0.3,1.3,0.7,1.8C182.8,9.3,183.4,9.6,184.2,9.6"/>
		</g>
		<g>
			<path class="st0" d="M187.6,30.9c-1.5,0-1.5-0.5-1.5-0.8v-15c0-0.5-0.2-0.8-0.5-1.1c-0.4-0.3-0.8-0.3-1.2-0.2l-3.6,1
				c-0.7,0.2-1,0.8-1,1.5c0.1,0.7,0.6,1.1,1.3,1.1c0.7,0,1,0.1,1.1,0.1c0,0.1,0.1,0.5,0.1,1.6v10.7c0,0.6-0.2,1-1.2,1
				c-0.8,0-1.3,0.5-1.3,1.3c0,0.8,0.4,1.3,1.2,1.4l6.5,0c0.8,0,1.3-0.5,1.3-1.3C188.9,31.4,188.4,30.9,187.6,30.9"/>
		</g>
		<g>
			<path class="st0" d="M212.7,30.9h-0.9c-0.4,0-0.7-0.1-0.7-1V19.6c0-2.4-0.9-4.1-2.6-5.1c-0.9-0.6-1.9-0.8-3-0.8
				c-1.8,0-3.9,1.2-5.4,2.7v-1.3c0-0.5-0.2-0.8-0.5-1.1c-0.4-0.3-0.8-0.3-1.2-0.2l-3.6,1c-0.7,0.2-1.1,0.8-1,1.5
				c0.1,0.7,0.6,1.1,1.3,1.1c0.9,0,1,0.2,1,0.2l0,0.1c0,0,0.1,0.3,0.1,1.5v10.8c0,0.4-0.1,0.8-1,0.8h-0.2c-0.8,0-1.3,0.5-1.3,1.3
				c0,0.8,0.5,1.3,1.3,1.3h6.4c0.8,0,1.3-0.5,1.3-1.3c0-0.8-0.5-1.3-1.3-1.3c-0.9,0-1.1-0.1-1.2-0.1c-0.1,0-0.3-0.1-0.3-0.6V19.5
				c0.4-0.4,0.9-0.9,1.6-1.4c1.1-0.8,2.1-1.3,2.9-1.3c1.2,0,2.9,0.5,2.9,4.4v8.4c0,1-0.2,1.2-0.2,1.2c0,0-0.3,0.1-1.5,0.1
				c-0.8,0-1.3,0.5-1.3,1.3c0,0.8,0.5,1.3,1.3,1.3h7.1l0.1,0c0.7-0.1,1.1-0.6,1.1-1.4C214,31.4,213.5,30.9,212.7,30.9"/>
		</g>
		<g>
			<path class="st0" d="M236.9,14.6c-0.5-0.7-1.2-1.1-2.1-1.1c-0.2,0-0.3,0-0.5,0c-0.6,0.1-1.3,0.4-2.2,1c-0.3,0.2-0.6,0.5-1.2,0.9
				c-1.6-1.2-3.4-1.7-5.3-1.5c-1.6,0.1-3.1,0.8-4.5,2c-1.6,1.4-2.4,3.2-2.4,5.3c0,2.2,0.8,3.9,2.3,5.3c-1.4,0.9-2.1,1.9-2.1,2.9
				c0,0.8,0.3,1.8,1.5,2.5c-2.1,1-3.2,2.2-3.2,3.7c0,2.5,2.5,3.9,7.7,4.2c0.3,0,0.8,0,1.6,0c2.8,0,5.1-0.5,6.7-1.5
				c1.6-1,2.5-2.3,2.5-3.8c0-1.8-1-3.1-3-3.8c-1.1-0.4-2.9-0.5-5.5-0.5c-2.6,0-4,0.6-4.3,0.4c0.1-0.1-2.7-1.4-0.3-3
				c0.9,0.3,2.7,0.9,3.6,0.9c2,0,3.7-0.7,5.3-2c1.7-1.4,2.5-3.1,2.5-5.2c0-1.4-0.4-2.8-1.3-4l0.1-0.1c0.1,0.1,0.3,0.2,0.6,0.5
				c0.6,0.4,1.1,0.7,1.7,0.7c0.1,0,0.3,0,0.4,0c0.5-0.1,0.9-0.3,1.2-0.8c0.3-0.4,0.5-0.9,0.5-1.5C237.4,15.5,237.2,15,236.9,14.6
				 M229.1,24.5c-0.7,0.8-1.6,1.2-2.7,1.2c-0.1,0-0.2,0-0.4,0c-1.4-0.1-3.3-0.8-3.3-4.6c0-1.5,0.4-2.7,1.3-3.6
				c0.7-0.7,1.5-1.1,2.3-1.1c0.1,0,0.3,0,0.5,0c1,0.1,1.8,0.6,2.4,1.5c0.6,0.9,1,2,1,3.3C230.1,22.6,229.8,23.7,229.1,24.5
				 M230.7,33.6c1,0.3,1.5,0.7,1.5,1.2c0,1.5-1.8,2.3-5.5,2.3c-0.5,0-1.1,0-1.7-0.1c-1.8-0.1-4-0.5-4-1.7c0-0.7,1-1.3,2.9-1.9
				C226.7,32.6,229.8,33.4,230.7,33.6"/>
		</g>
		<g>
			<path class="st0" d="M43.2,37.3c0.4,0,0.7,0.3,0.7,0.7c0,0.4,2.2,1.3,5.5,1.3c3.3,0,4.6-1,4.6-1.3c0-0.4,0.3-0.7,0.7-0.7
				c0.4,0,0.7,0.3,0.7,0.7c0,0.1,0,1.2-1,2.2c-1.1,1.1-2.5,1.7-5,1.7c-2.5,0-4.8-0.6-5.9-1.7c-1-1-1-2.1-1-2.2
				C42.5,37.6,42.8,37.3,43.2,37.3"/>
		</g>
		<g>
			<path class="st0" d="M137.3,37.3c0.4,0,0.7,0.3,0.7,0.7c0,0.4,1.3,1.3,4.6,1.3c3.3,0,5.5-1,5.5-1.3c0-0.4,0.3-0.7,0.7-0.7
				c0.4,0,0.7,0.3,0.7,0.7c0,0.1,0,1.2-1,2.2c-1.1,1.1-3.4,1.7-5.9,1.7c-2.5,0-3.9-0.6-5-1.7c-1-1-1-2.1-1-2.2
				C136.7,37.6,137,37.3,137.3,37.3"/>
		</g>
	</g>
	<g>
		<g>
			<path class="st0" d="M302,32.5l-9-20.5C291.1,8,288.8,7,285.9,7c-2.9,0-5.2,1-7.1,4.9l-9,20.5c-0.5,1.4-0.7,2.1-0.7,3.1
				c0,2.3,2.5,3.7,4.8,3.7c0.9,0,3.9-0.2,4.7-3.1l6.2-17.6c0.3-0.8,0.8-0.9,1.1-0.9c0.2,0,0.8,0.1,1.1,0.9l6.2,17.6
				c0.8,2.9,3.8,3.1,4.8,3.1c2.3,0,4.8-1.4,4.8-3.7C302.7,34.5,302.5,33.8,302,32.5"/>
		</g>
		<g>
			<path class="st0" d="M383,13.8l9,20.5c1.9,3.9,4.2,4.9,7.1,4.9c2.9,0,5.2-1,7.1-4.9l12.1-27.5c0.5-1.4,0.7-2.1,0.7-3.1
				c0-2.3-2.5-3.7-4.8-3.7c-1.4,0-4.4,0.2-5.3,3.1l-8.6,24.5c-0.3,0.8-0.8,0.9-1.1,0.9c-0.2,0-0.8-0.1-1.1-0.9l-6.2-17.6
				C391,7.2,388,7,387.1,7c-2.3,0-4.8,1.4-4.8,3.7C382.3,11.8,382.5,12.4,383,13.8"/>
		</g>
		<g>
			<path class="st0" d="M328,20.1l-5.9-1.4c-2.2-0.5-4.3-1.2-4.3-3.3c0-1.7,1.7-2.8,4.3-2.8c3.3,0,4.9,1.3,6.2,2.4
				c1,0.9,1.8,1.5,3.3,1.5c2.6,0,4.3-1.4,4.3-3.5c0-4.6-7.5-6.2-14.5-6.2c-9.8,0-13.3,5.1-13.3,9.8c0,4.2,2.8,7,8.3,8.5l7.6,2
				c1.9,0.5,3.6,1.1,3.6,3c0,2.1-1.9,3.3-5,3.3c-3.3,0-4.9-1.5-6.4-2.8c-1.2-1-2.1-1.9-3.8-1.9c-2.5,0-4.2,1.5-4.2,3.6
				c0,2.9,4,7.1,15.1,7.1c6.5,0,14.2-2.7,14.2-10.4C337.7,24.4,334.8,21.8,328,20.1"/>
		</g>
		<g>
			<path class="st0" d="M360.8,6.8c-8.9,0-17.8,5-17.8,16.3c0,12,9.6,16.3,17.8,16.3c8.2,0,17.8-4.3,17.8-16.3
				C378.6,11.8,369.6,6.8,360.8,6.8 M360.8,32.6c-4.8,0-7.7-3.5-7.7-9.5c0-5.9,2.9-9.5,7.7-9.5c4.8,0,7.7,3.5,7.7,9.5
				C368.4,29,365.6,32.6,360.8,32.6"/>
		</g>
	</g>
</g>
</svg>
